# xmcd
#
# Track frame offsets: 
#        150
#        12202
#        24340
#        35862
#        52103
#        64933
#        80048
#        91910
#        104610
#        124995
#        138450
#        151319
#        168035
#
# Disc length: 2496 seconds
#
# Revision: 2
# Processed by: cddbd v1.5.2PL0 Copyright (c) Steve Scherf et al.
# Submitted via: ExactAudioCopyFreeDBPlugin 1.0
#
DISCID=ae09be0d
DTITLE=Various Artist - Blues Roots (a Tomato blues package)
DYEAR=2002
DGENRE=Blues
TTITLE0=John Jackson - Bear Cat Blues
TTITLE1=Guitar Slim - Snowing and Raining Blues
TTITLE2=Jesse Fuller - Got a Date at Half Past Eight
TTITLE3=Lightin' Hopkins - You Got Another Man
TTITLE4=Juke Boy Bonner - Struggle Here in Houston
TTITLE5=George Coleman - Listen At That Bull
TTITLE6=Joe Turner - Trouble Blues
TTITLE7=Little John - Dream
TTITLE8=Mercy Dee - Sugar Daddy
TTITLE9=Big Mama Thornton - I'm Feeling Alright
TTITLE10=Johnny Young - Sometimes I Cry
TTITLE11=Clifton Chenier - Black Snake Blues
TTITLE12=Earl Hooker - Two Bugs and a Roach
EXTD=
EXTT0=
EXTT1=
EXTT2=
EXTT3=
EXTT4=
EXTT5=
EXTT6=
EXTT7=
EXTT8=
EXTT9=
EXTT10=
EXTT11=
EXTT12=
PLAYORDER=
